<?xml version="1.0" encoding="UTF-8" standalone="no"?><!DOCTYPE svg PUBLIC "-//W3C//DTD SVG 1.1//EN" "http://www.w3.org/Graphics/SVG/1.1/DTD/svg11.dtd"><svg width="100%" height="100%" viewBox="0 0 107 32" version="1.1" xmlns="http://www.w3.org/2000/svg" xmlns:xlink="http://www.w3.org/1999/xlink" xml:space="preserve" xmlns:serif="http://www.serif.com/" style="fill-rule:evenodd;clip-rule:evenodd;stroke-linejoin:round;stroke-miterlimit:2;"><path d="M102,0l-71,0l0,32l71,0c2.761,0 5,-2.239 5,-5l0,-22c0,-2.761 -2.239,-5 -5,-5Z" style="fill:#0f1418;fill-rule:nonzero;"/><path d="M31,0l-26,0c-2.761,0 -5,2.239 -5,5l0,22c0,2.761 2.239,5 5,5l26,0l0,-32Z" style="fill:#366e9c;fill-rule:nonzero;"/><path d="M27.559,13.025c-0.412,-1.655 -1.194,-2.903 -2.86,-2.903l-2.149,-0l0,2.539c0,1.971 -1.671,3.632 -3.578,3.632l-5.721,-0c-1.565,-0 -2.861,1.339 -2.861,2.909l0,5.453c0,1.554 1.35,2.464 2.861,2.909c1.81,0.53 3.551,0.627 5.721,-0c1.441,-0.418 2.861,-1.259 2.861,-2.909l-0,-2.18l-5.716,-0l-0,-0.729l8.582,0c1.666,0 2.282,-1.162 2.86,-2.903c0.6,-1.795 0.573,-3.52 0,-5.818Zm-8.228,10.902c0.595,-0 1.077,0.487 1.077,1.087c-0,0.605 -0.482,1.093 -1.077,1.093c-0.589,-0 -1.077,-0.493 -1.077,-1.093c0.005,-0.605 0.488,-1.087 1.077,-1.087Zm-6.343,-8.352l5.721,0c1.591,0 2.861,-1.313 2.861,-2.909l0,-5.459c0,-1.553 -1.307,-2.716 -2.861,-2.978c-1.917,-0.316 -4.001,-0.3 -5.721,0.005c-2.421,0.429 -2.86,1.323 -2.86,2.979l-0,2.18l5.726,0l0,0.729l-7.874,-0c-1.666,-0 -3.124,1.001 -3.579,2.903c-0.525,2.18 -0.546,3.541 0,5.818c0.407,1.693 1.377,2.903 3.043,2.903l1.966,0l-0,-2.614c-0,-1.891 1.634,-3.557 3.578,-3.557Zm-0.359,-7.639c-0.594,-0 -1.076,-0.488 -1.076,-1.087c0.005,-0.606 0.482,-1.093 1.076,-1.093c0.59,-0 1.077,0.493 1.077,1.093c0,0.599 -0.482,1.087 -1.077,1.087Z" style="fill:#fff;fill-rule:nonzero;"/><path d="M46.892,18.382l0,3.618l-2.365,0l-0,-10.503l3.706,0c2.646,0 3.969,1.116 3.969,3.347c0,1.055 -0.381,1.909 -1.142,2.564c-0.757,0.649 -1.77,0.974 -3.04,0.974l-1.128,-0Zm0,-5.069l0,3.274l0.93,0c1.26,0 1.89,-0.551 1.89,-1.655c0,-1.079 -0.63,-1.619 -1.89,-1.619l-0.93,0Zm14.206,1.187l-3.047,8.101c-0.732,1.948 -1.836,2.922 -3.31,2.922c-0.562,-0 -1.023,-0.064 -1.385,-0.191l0,-1.845c0.308,0.18 0.643,0.271 1.004,0.271c0.596,-0 1.011,-0.281 1.245,-0.843l0.396,-0.93l-3.047,-7.485l2.563,-0l1.399,4.563c0.088,0.283 0.156,0.618 0.205,1.003l0.029,0c0.044,-0.283 0.125,-0.612 0.242,-0.988l1.414,-4.578l2.292,-0Zm5.673,7.412c-0.341,0.181 -0.857,0.271 -1.545,0.271c-1.631,0 -2.446,-0.847 -2.446,-2.541l-0,-3.436l-1.216,0l-0,-1.706l1.216,-0l-0,-1.619l2.307,-0.659l-0,2.278l1.684,-0l0,1.706l-1.684,0l-0,3.033c-0,0.781 0.31,1.172 0.93,1.172c0.244,-0 0.495,-0.071 0.754,-0.213l0,1.714Zm8.691,0.088l-2.307,-0l-0,-4.263c-0,-1.098 -0.4,-1.648 -1.201,-1.648c-0.41,0 -0.742,0.154 -0.996,0.462c-0.254,0.307 -0.381,0.698 -0.381,1.172l-0,4.277l-2.315,-0l0,-11.104l2.315,0l-0,4.717l0.029,0c0.566,-0.864 1.336,-1.296 2.307,-1.296c1.699,-0 2.549,1.025 2.549,3.076l0,4.607Zm5.593,0.183c-1.25,0 -2.234,-0.349 -2.952,-1.047c-0.713,-0.703 -1.069,-1.656 -1.069,-2.857c-0,-1.24 0.371,-2.209 1.113,-2.907c0.742,-0.704 1.746,-1.055 3.01,-1.055c1.245,-0 2.222,0.351 2.93,1.055c0.708,0.698 1.062,1.623 1.062,2.775c-0,1.246 -0.366,2.229 -1.099,2.952c-0.727,0.723 -1.726,1.084 -2.995,1.084Zm0.058,-6.094c-0.547,0 -0.971,0.188 -1.274,0.564c-0.303,0.376 -0.454,0.908 -0.454,1.597c-0,1.44 0.581,2.161 1.743,2.161c1.108,-0 1.662,-0.74 1.662,-2.22c0,-1.401 -0.559,-2.102 -1.677,-2.102Zm12.961,5.911l-2.307,-0l-0,-4.168c-0,-1.162 -0.415,-1.743 -1.245,-1.743c-0.401,0 -0.73,0.154 -0.989,0.462c-0.259,0.307 -0.388,0.698 -0.388,1.172l-0,4.277l-2.315,-0l0,-7.5l2.315,-0l-0,1.186l0.029,0c0.552,-0.913 1.355,-1.369 2.41,-1.369c1.66,-0 2.49,1.03 2.49,3.091l-0,4.592Z" style="fill:#fff;fill-rule:nonzero;"/><path d="M102,0l-97,0c-2.761,0 -5,2.239 -5,5l0,22c0,2.761 2.239,5 5,5l97,0c2.761,0 5,-2.239 5,-5l0,-22c0,-2.761 -2.239,-5 -5,-5Z" style="fill:url(#_Linear1);fill-rule:nonzero;"/><defs><linearGradient id="_Linear1" x1="0" y1="0" x2="1" y2="0" gradientUnits="userSpaceOnUse" gradientTransform="matrix(1.95943e-15,32,-32,1.95943e-15,0,0)"><stop offset="0" style="stop-color:#bbb;stop-opacity:0.1"/><stop offset="1" style="stop-color:#000;stop-opacity:0.1"/></linearGradient></defs></svg>