<?xml version="1.0" encoding="UTF-8" standalone="no"?><!DOCTYPE svg PUBLIC "-//W3C//DTD SVG 1.1//EN" "http://www.w3.org/Graphics/SVG/1.1/DTD/svg11.dtd"><svg width="100%" height="100%" viewBox="0 0 88 32" version="1.1" xmlns="http://www.w3.org/2000/svg" xmlns:xlink="http://www.w3.org/1999/xlink" xml:space="preserve" xmlns:serif="http://www.serif.com/" style="fill-rule:evenodd;clip-rule:evenodd;stroke-linejoin:round;stroke-miterlimit:2;"><path d="M83,0l-52,0l0,32l52,0c2.761,0 5,-2.239 5,-5l0,-22c0,-2.761 -2.239,-5 -5,-5Z" style="fill:#0f1418;fill-rule:nonzero;"/><path d="M31,0l-26,0c-2.761,0 -5,2.239 -5,5l0,22c0,2.761 2.239,5 5,5l26,0l0,-32Z" style="fill:#eff115;fill-rule:nonzero;"/><g><path d="M15.504,4c-0.155,0 -0.315,0.008 -0.48,0.021c-4.226,0.333 -3.105,4.807 -3.17,6.298c-0.076,1.092 -0.3,1.953 -1.05,3.02c-0.885,1.051 -2.127,2.75 -2.716,4.521c-0.278,0.832 -0.41,1.684 -0.287,2.489c-0.046,0.037 -0.083,0.083 -0.11,0.135c-0.26,0.268 -0.45,0.6 -0.663,0.839c-0.199,0.199 -0.485,0.267 -0.797,0.4c-0.313,0.136 -0.658,0.269 -0.864,0.68c-0.09,0.189 -0.136,0.394 -0.132,0.602c0,0.199 0.027,0.4 0.055,0.536c0.058,0.399 0.116,0.728 0.04,0.97c-0.249,0.68 -0.28,1.145 -0.106,1.484c0.174,0.334 0.535,0.47 0.94,0.601c0.81,0.2 1.91,0.135 2.774,0.6c0.926,0.466 1.866,0.67 2.616,0.47c0.526,-0.116 0.97,-0.464 1.208,-0.946c0.587,-0.003 1.23,-0.269 2.26,-0.334c0.699,-0.058 1.574,0.267 2.577,0.2c0.025,0.134 0.063,0.198 0.114,0.333l0.003,0.003c0.391,0.778 1.113,1.132 1.884,1.071c0.771,-0.06 1.592,-0.536 2.257,-1.306c0.631,-0.765 1.683,-1.084 2.378,-1.503c0.348,-0.199 0.629,-0.469 0.649,-0.853c0.023,-0.4 -0.2,-0.811 -0.714,-1.376l0,-0.097l-0.003,-0.003c-0.17,-0.2 -0.25,-0.535 -0.338,-0.926c-0.085,-0.401 -0.182,-0.786 -0.492,-1.046l-0.003,0c-0.059,-0.054 -0.123,-0.067 -0.188,-0.135c-0.056,-0.039 -0.122,-0.061 -0.19,-0.064c0.431,-1.278 0.264,-2.55 -0.173,-3.694c-0.533,-1.41 -1.465,-2.638 -2.175,-3.483c-0.796,-1.005 -1.576,-1.957 -1.56,-3.368c0.026,-2.152 0.236,-6.133 -3.544,-6.139Zm0.529,3.405l0.013,0c0.213,0 0.396,0.062 0.584,0.198c0.19,0.135 0.33,0.332 0.438,0.533c0.105,0.259 0.158,0.459 0.166,0.724c0,-0.02 0.006,-0.04 0.006,-0.06l0,0.105c-0.002,-0.007 -0.004,-0.014 -0.004,-0.021l-0.004,-0.024c-0.002,0.243 -0.053,0.483 -0.15,0.706c-0.047,0.125 -0.119,0.24 -0.213,0.335c-0.028,-0.016 -0.058,-0.03 -0.088,-0.042c-0.104,-0.045 -0.198,-0.064 -0.284,-0.133c-0.071,-0.028 -0.145,-0.05 -0.22,-0.066c0.05,-0.06 0.146,-0.133 0.183,-0.198c0.053,-0.128 0.082,-0.264 0.088,-0.402l0,-0.02c0.002,-0.136 -0.018,-0.271 -0.061,-0.4c-0.045,-0.134 -0.101,-0.2 -0.183,-0.333c-0.084,-0.066 -0.167,-0.132 -0.267,-0.132l-0.016,0c-0.093,0 -0.176,0.03 -0.262,0.132c-0.095,0.093 -0.165,0.207 -0.205,0.334c-0.053,0.127 -0.084,0.262 -0.09,0.4l-0,0.019c0.002,0.089 0.008,0.179 0.02,0.267c-0.193,-0.067 -0.438,-0.135 -0.607,-0.202c-0.01,-0.066 -0.016,-0.133 -0.018,-0.2l-0,-0.02c-0.008,-0.264 0.043,-0.526 0.15,-0.768c0.082,-0.22 0.232,-0.406 0.43,-0.533c0.171,-0.13 0.38,-0.2 0.594,-0.2l-0,0.001Zm-2.962,0.059l0.036,0c0.142,0 0.27,0.048 0.399,0.135c0.146,0.129 0.264,0.288 0.344,0.465c0.09,0.199 0.14,0.4 0.153,0.667l-0,0.004c0.007,0.134 0.006,0.2 -0.002,0.266l-0,0.08c-0.03,0.007 -0.056,0.018 -0.083,0.024c-0.152,0.055 -0.274,0.135 -0.393,0.2c0.012,-0.09 0.013,-0.18 0.003,-0.267l-0,-0.015c-0.012,-0.133 -0.04,-0.2 -0.082,-0.333c-0.031,-0.102 -0.088,-0.194 -0.166,-0.267c-0.05,-0.045 -0.116,-0.068 -0.183,-0.064l-0.021,0c-0.071,0.006 -0.13,0.04 -0.186,0.132c-0.064,0.077 -0.105,0.171 -0.12,0.27c-0.027,0.108 -0.035,0.22 -0.023,0.33l-0,0.015c0.012,0.135 0.037,0.2 0.08,0.334c0.046,0.134 0.098,0.2 0.166,0.268c0.01,0.009 0.02,0.018 0.034,0.024c-0.07,0.057 -0.117,0.07 -0.176,0.136c-0.037,0.033 -0.082,0.056 -0.131,0.068c-0.104,-0.125 -0.196,-0.26 -0.275,-0.402c-0.095,-0.21 -0.147,-0.437 -0.155,-0.667c-0.017,-0.226 0.011,-0.453 0.08,-0.668c0.055,-0.196 0.152,-0.379 0.283,-0.535c0.128,-0.133 0.26,-0.2 0.418,-0.2Zm1.37,1.706c0.332,0 0.733,0.065 1.216,0.399c0.293,0.2 0.523,0.269 1.052,0.468l0.003,0c0.255,0.136 0.405,0.266 0.478,0.399l-0,-0.131c0.073,0.147 0.078,0.318 0.016,0.47c-0.123,0.31 -0.516,0.643 -1.063,0.842l-0,0.002c-0.268,0.135 -0.501,0.333 -0.775,0.465c-0.276,0.135 -0.588,0.292 -1.012,0.267c-0.152,0.008 -0.305,-0.015 -0.448,-0.067c-0.111,-0.06 -0.218,-0.126 -0.322,-0.198c-0.195,-0.135 -0.363,-0.332 -0.612,-0.465l-0,-0.005l-0.005,0c-0.4,-0.246 -0.616,-0.512 -0.686,-0.71c-0.07,-0.268 -0.005,-0.47 0.193,-0.6c0.224,-0.135 0.38,-0.271 0.483,-0.336c0.104,-0.074 0.143,-0.102 0.176,-0.131l0.002,0l-0,-0.003c0.169,-0.202 0.436,-0.47 0.839,-0.601c0.139,-0.036 0.294,-0.065 0.466,-0.065l-0.001,0Zm2.8,2.142c0.358,1.417 1.196,3.475 1.735,4.473c0.286,0.534 0.855,1.659 1.102,3.024c0.156,-0.005 0.33,0.018 0.513,0.064c0.646,-1.671 -0.546,-3.467 -1.089,-3.966c-0.22,-0.2 -0.232,-0.335 -0.123,-0.335c0.59,0.534 1.365,1.572 1.646,2.757c0.13,0.535 0.16,1.104 0.021,1.67c0.067,0.028 0.135,0.06 0.205,0.067c1.032,0.534 1.413,0.938 1.23,1.537l-0,-0.043c-0.06,-0.003 -0.12,0 -0.18,0l-0.016,0c0.151,-0.467 -0.182,-0.825 -1.065,-1.224c-0.915,-0.4 -1.646,-0.336 -1.77,0.465c-0.008,0.043 -0.013,0.066 -0.018,0.135c-0.068,0.023 -0.139,0.053 -0.209,0.064c-0.43,0.268 -0.662,0.669 -0.793,1.187c-0.13,0.533 -0.17,1.156 -0.205,1.869l-0,0.003c-0.02,0.334 -0.17,0.838 -0.319,1.35c-1.5,1.072 -3.58,1.538 -5.348,0.334c-0.111,-0.194 -0.246,-0.373 -0.402,-0.533c-0.075,-0.124 -0.167,-0.236 -0.275,-0.333c0.182,0 0.338,-0.03 0.465,-0.067c0.144,-0.067 0.256,-0.186 0.314,-0.334c0.108,-0.267 -0,-0.697 -0.345,-1.163c-0.345,-0.467 -0.931,-0.995 -1.788,-1.521c-0.63,-0.4 -0.986,-0.87 -1.15,-1.396c-0.165,-0.534 -0.143,-1.085 -0.015,-1.645c0.245,-1.07 0.873,-2.11 1.274,-2.763c0.107,-0.065 0.037,0.135 -0.408,0.974c-0.396,0.751 -1.14,2.497 -0.122,3.854c0.038,-0.99 0.258,-1.965 0.647,-2.876c0.564,-1.278 1.743,-3.504 1.836,-5.268c0.048,0.036 0.217,0.135 0.289,0.202c0.218,0.133 0.38,0.333 0.59,0.465c0.21,0.201 0.477,0.335 0.876,0.335c0.039,0.003 0.075,0.006 0.11,0.006c0.412,0 0.73,-0.134 0.997,-0.268c0.29,-0.134 0.52,-0.334 0.74,-0.4l0.005,0c0.467,-0.135 0.835,-0.402 1.044,-0.7l0.001,0Zm2.185,8.958c0.037,0.6 0.343,1.245 0.882,1.377c0.588,0.134 1.434,-0.333 1.791,-0.765l0.211,-0.01c0.315,-0.007 0.577,0.01 0.847,0.268l0.003,0.003c0.208,0.199 0.305,0.53 0.391,0.876c0.085,0.4 0.154,0.78 0.409,1.066c0.486,0.527 0.645,0.906 0.636,1.14l0.003,-0.007l-0,0.018l-0.003,-0.012c-0.015,0.262 -0.185,0.396 -0.498,0.595c-0.63,0.401 -1.746,0.712 -2.457,1.57c-0.618,0.737 -1.37,1.14 -2.036,1.191c-0.664,0.053 -1.237,-0.2 -1.574,-0.898l-0.005,-0.003c-0.21,-0.4 -0.12,-1.025 0.056,-1.69c0.176,-0.668 0.428,-1.344 0.463,-1.897c0.037,-0.714 0.076,-1.335 0.195,-1.814c0.12,-0.465 0.308,-0.797 0.641,-0.984l0.045,-0.022l-0,-0.002Zm-10.814,0.049l0.01,0c0.053,0 0.105,0.005 0.157,0.014c0.376,0.055 0.706,0.333 1.023,0.752l0.91,1.664l0.003,0.003c0.243,0.533 0.754,1.064 1.189,1.637c0.434,0.598 0.77,1.131 0.729,1.57l-0,0.006c-0.057,0.744 -0.48,1.148 -1.125,1.294c-0.645,0.135 -1.52,0.002 -2.395,-0.464c-0.968,-0.536 -2.118,-0.469 -2.857,-0.602c-0.369,-0.066 -0.61,-0.2 -0.723,-0.4c-0.11,-0.2 -0.113,-0.602 0.123,-1.23l-0,-0.004l0.002,-0.003c0.117,-0.334 0.03,-0.752 -0.027,-1.118c-0.055,-0.401 -0.083,-0.71 0.043,-0.94c0.16,-0.334 0.396,-0.4 0.69,-0.533c0.294,-0.135 0.64,-0.202 0.915,-0.47l0.002,0l-0,-0.002c0.256,-0.268 0.445,-0.601 0.668,-0.838c0.19,-0.201 0.38,-0.336 0.663,-0.336Zm7.159,-9.074c-0.435,0.201 -0.945,0.535 -1.488,0.535c-0.542,0 -0.97,-0.267 -1.28,-0.466c-0.154,-0.134 -0.28,-0.268 -0.373,-0.335c-0.164,-0.134 -0.144,-0.333 -0.074,-0.333c0.109,0.016 0.129,0.134 0.199,0.2c0.096,0.066 0.215,0.2 0.36,0.333c0.292,0.2 0.68,0.467 1.167,0.467c0.485,0 1.053,-0.267 1.398,-0.466c0.195,-0.135 0.445,-0.334 0.648,-0.467c0.156,-0.136 0.149,-0.267 0.279,-0.267c0.128,0.016 0.034,0.134 -0.147,0.332c-0.222,0.168 -0.452,0.324 -0.69,0.468l0.001,-0.001Zm-1.082,-1.583l-0,-0.022c-0.006,-0.02 0.013,-0.042 0.029,-0.05c0.074,-0.043 0.18,-0.027 0.26,0.004c0.063,0 0.16,0.067 0.15,0.135c-0.006,0.049 -0.085,0.066 -0.135,0.066c-0.055,0 -0.092,-0.043 -0.141,-0.068c-0.052,-0.018 -0.146,-0.008 -0.163,-0.065Zm-0.551,0c-0.02,0.058 -0.113,0.049 -0.166,0.066c-0.047,0.025 -0.086,0.068 -0.14,0.068c-0.05,0 -0.13,-0.02 -0.136,-0.068c-0.01,-0.066 0.088,-0.133 0.15,-0.133c0.08,-0.031 0.184,-0.047 0.259,-0.005c0.019,0.009 0.036,0.03 0.03,0.05l-0,0.02l0.003,0l-0,0.002Z" style="fill-rule:nonzero;"/></g><g><path d="M44.862,19.908c0.288,0.091 0.5,0.227 0.636,0.409c0.137,0.182 0.201,0.367 0.193,0.557c-0.007,0.189 -0.087,0.371 -0.238,0.545c-0.152,0.174 -0.371,0.292 -0.659,0.352c-1.167,0.031 -2.326,0.049 -3.478,0.057c-1.151,0.008 -2.303,0.027 -3.454,0.057c-0.591,-0.061 -0.917,-0.386 -0.977,-0.977c-0,-2 0.007,-3.993 0.022,-5.978c0.016,-1.984 0.023,-3.984 0.023,-5.999c0.061,-0.288 0.178,-0.508 0.352,-0.66c0.175,-0.151 0.356,-0.231 0.546,-0.238c0.189,-0.008 0.375,0.057 0.557,0.193c0.181,0.136 0.318,0.348 0.409,0.636c-0,1.879 -0.008,3.739 -0.023,5.58c-0.015,1.841 -0.023,3.701 -0.023,5.579c1.015,-0.03 2.031,-0.049 3.046,-0.057c1.015,-0.007 2.038,-0.026 3.068,-0.056Z" style="fill:#fff;fill-rule:nonzero;"/><path d="M49.703,20.976c-0.015,0.348 -0.118,0.61 -0.307,0.784c-0.19,0.174 -0.398,0.261 -0.625,0.261c-0.212,0 -0.409,-0.079 -0.591,-0.238c-0.182,-0.159 -0.295,-0.406 -0.341,-0.739c-0.015,-1.424 -0.026,-2.879 -0.034,-4.364c-0.008,-1.484 -0.019,-2.939 -0.034,-4.363c0.076,-0.303 0.197,-0.53 0.364,-0.682c0.166,-0.151 0.356,-0.227 0.568,-0.227c0.197,-0 0.382,0.068 0.557,0.204c0.174,0.137 0.299,0.349 0.375,0.637c0.015,1.424 0.026,2.878 0.034,4.363c0.007,1.485 0.019,2.94 0.034,4.364Zm-2.091,-12.364c-0,-0.333 0.106,-0.617 0.318,-0.852c0.212,-0.235 0.47,-0.352 0.773,-0.352c0.303,-0 0.564,0.117 0.784,0.352c0.219,0.235 0.329,0.519 0.329,0.852c0,0.319 -0.11,0.595 -0.329,0.83c-0.22,0.235 -0.481,0.352 -0.784,0.352c-0.303,0 -0.561,-0.117 -0.773,-0.352c-0.212,-0.235 -0.318,-0.511 -0.318,-0.83Z" style="fill:#fff;fill-rule:nonzero;"/><path d="M60.839,21.021c-0.015,0.349 -0.118,0.61 -0.307,0.784c-0.189,0.175 -0.398,0.262 -0.625,0.262c-0.212,-0 -0.409,-0.08 -0.591,-0.239c-0.182,-0.159 -0.295,-0.405 -0.341,-0.739c0,-0.697 -0.004,-1.39 -0.011,-2.079c-0.008,-0.689 -0.011,-1.383 -0.011,-2.08c-0,-0.5 0.003,-1 0.011,-1.5c0.007,-0.5 -0.027,-1 -0.102,-1.5c-0.122,-0.227 -0.254,-0.367 -0.398,-0.42c-0.144,-0.053 -0.314,-0.08 -0.511,-0.08c-0.516,0 -1.023,0.125 -1.523,0.375c-0.5,0.25 -0.894,0.595 -1.182,1.035c-0.167,0.257 -0.299,0.473 -0.398,0.647c-0.098,0.174 -0.163,0.428 -0.193,0.762l0,2.318c0,0.772 0.008,1.545 0.023,2.318c-0.015,0.348 -0.118,0.61 -0.307,0.784c-0.189,0.174 -0.398,0.261 -0.625,0.261c-0.212,0 -0.409,-0.079 -0.591,-0.238c-0.182,-0.159 -0.295,-0.406 -0.341,-0.739l0,-2.114c0,-0.681 -0.004,-1.356 -0.011,-2.022c-0.008,-0.667 -0.011,-1.345 -0.011,-2.034l-0,-2.125c0.075,-0.303 0.197,-0.531 0.363,-0.682c0.167,-0.152 0.356,-0.227 0.568,-0.227c0.197,-0 0.383,0.068 0.557,0.204c0.174,0.137 0.299,0.349 0.375,0.637l0,0.181c0.44,-0.378 0.936,-0.678 1.489,-0.897c0.553,-0.22 1.11,-0.33 1.67,-0.33c0.561,0 1.087,0.129 1.58,0.386c0.492,0.258 0.89,0.675 1.193,1.25c0.106,0.197 0.178,0.444 0.216,0.739c0.038,0.296 0.06,0.606 0.068,0.932c0.008,0.326 0.004,0.659 -0.011,1c-0.016,0.341 -0.023,0.663 -0.023,0.966l-0,4.204Z" style="fill:#fff;fill-rule:nonzero;"/><path d="M72.611,20.135c0.167,0.212 0.25,0.447 0.25,0.704c0,0.258 -0.083,0.466 -0.25,0.625c-0.166,0.16 -0.371,0.239 -0.613,0.239c-0.334,0 -0.621,-0.155 -0.864,-0.466c-0.242,-0.31 -0.447,-0.663 -0.613,-1.057c-0.394,0.425 -0.856,0.784 -1.387,1.08c-0.53,0.295 -1.076,0.443 -1.636,0.443c-0.409,0 -0.803,-0.072 -1.182,-0.216c-0.379,-0.144 -0.731,-0.341 -1.057,-0.591c-0.325,-0.25 -0.613,-0.541 -0.863,-0.875c-0.25,-0.333 -0.436,-0.682 -0.557,-1.045c-0.121,-0.394 -0.205,-0.83 -0.25,-1.307c-0.046,-0.477 -0.068,-0.973 -0.068,-1.489c-0,-0.621 0.015,-1.227 0.045,-1.818c0.03,-0.591 0.046,-1.113 0.046,-1.568c0.075,-0.303 0.197,-0.53 0.363,-0.682c0.167,-0.151 0.356,-0.227 0.568,-0.227c0.197,0 0.383,0.068 0.557,0.205c0.174,0.136 0.299,0.348 0.375,0.636c0,0.712 -0.011,1.398 -0.034,2.057c-0.023,0.659 -0.034,1.36 -0.034,2.102c-0,0.848 0.182,1.545 0.545,2.091c0.364,0.545 0.856,0.818 1.478,0.818c0.227,-0 0.454,-0.045 0.682,-0.136c0.227,-0.091 0.439,-0.212 0.636,-0.364c0.197,-0.152 0.379,-0.326 0.545,-0.523c0.167,-0.197 0.318,-0.394 0.455,-0.591c0.03,-0.03 0.068,-0.056 0.113,-0.079c0.046,-0.023 0.084,-0.049 0.114,-0.08c-0.091,-0.757 -0.136,-1.522 -0.136,-2.295c-0,-0.44 0.004,-0.883 0.011,-1.33c0.008,-0.447 0.046,-0.856 0.114,-1.227c0.068,-0.371 0.182,-0.674 0.341,-0.909c0.159,-0.235 0.382,-0.352 0.67,-0.352c0.227,-0 0.432,0.087 0.614,0.261c0.182,0.174 0.272,0.428 0.272,0.761c0,0.349 -0.026,0.773 -0.079,1.273c-0.053,0.5 -0.08,1.023 -0.08,1.568c0,0.425 0.016,0.849 0.046,1.273c0.03,0.424 0.079,0.83 0.148,1.216c0.068,0.386 0.159,0.739 0.272,1.057c0.114,0.318 0.262,0.591 0.443,0.818Z" style="fill:#fff;fill-rule:nonzero;"/><path d="M82.179,11.703c0.258,-0.212 0.512,-0.31 0.762,-0.295c0.25,0.015 0.451,0.098 0.602,0.25c0.152,0.151 0.235,0.352 0.25,0.602c0.015,0.25 -0.083,0.504 -0.295,0.761c-0.561,0.546 -1.11,1.099 -1.648,1.659c-0.538,0.561 -1.064,1.129 -1.58,1.705c0.637,0.727 1.239,1.473 1.807,2.239c0.568,0.765 1.102,1.556 1.602,2.375c0.091,0.287 0.095,0.537 0.012,0.75c-0.084,0.212 -0.209,0.367 -0.375,0.465c-0.167,0.099 -0.36,0.133 -0.58,0.103c-0.219,-0.031 -0.435,-0.152 -0.647,-0.364c-0.44,-0.727 -0.917,-1.436 -1.432,-2.125c-0.515,-0.689 -1.053,-1.36 -1.614,-2.011c-1,1.227 -1.954,2.538 -2.863,3.932c-0.213,0.257 -0.444,0.401 -0.694,0.431c-0.25,0.031 -0.466,-0.019 -0.647,-0.147c-0.182,-0.129 -0.3,-0.319 -0.353,-0.569c-0.053,-0.25 0.012,-0.519 0.194,-0.806c0.469,-0.743 0.965,-1.47 1.488,-2.182c0.523,-0.712 1.065,-1.409 1.625,-2.091c-0.485,-0.53 -0.981,-1.057 -1.488,-1.58c-0.508,-0.522 -1.019,-1.049 -1.535,-1.579c-0.242,-0.243 -0.367,-0.489 -0.374,-0.739c-0.008,-0.25 0.06,-0.454 0.204,-0.613c0.144,-0.159 0.341,-0.258 0.591,-0.296c0.25,-0.038 0.511,0.042 0.784,0.239c0.515,0.53 1.03,1.057 1.545,1.579c0.516,0.523 1.016,1.05 1.5,1.58c0.5,-0.561 1.016,-1.114 1.546,-1.659c0.53,-0.546 1.068,-1.084 1.613,-1.614Z" style="fill:#fff;fill-rule:nonzero;"/></g></svg>